<svg width="99" height="18" viewBox="0 0 99 18" fill="none" xmlns="http://www.w3.org/2000/svg">
<path fill-rule="evenodd" clip-rule="evenodd" d="M10.9167 13.0135L9.56923 11.6801C9.05741 12.1467 8.54007 12.5163 8.01674 12.7886C7.49387 13.0607 6.86837 13.1967 6.14068 13.1967C5.57202 13.1967 5.04616 13.0886 4.56288 12.8718C4.0796 12.6551 3.66167 12.358 3.30911 11.9801C2.95654 11.6023 2.68383 11.1607 2.49029 10.6552C2.29697 10.1498 2.20055 9.60789 2.20055 9.03047C2.20055 8.4526 2.29697 7.91364 2.49029 7.41357C2.68383 6.91373 2.95654 6.47774 3.30911 6.10539C3.66167 5.73326 4.0796 5.43893 4.56288 5.22217C5.04616 5.00564 5.57202 4.89726 6.14068 4.89726C6.8228 4.89726 7.43128 5.0306 7.96565 5.29727C8.50025 5.56372 9.00632 5.91381 9.48362 6.3471L10.8313 4.83071C10.5471 4.56404 10.2458 4.31962 9.92732 4.09725C9.60904 3.87509 9.26223 3.6833 8.88688 3.5223C8.51153 3.36109 8.09936 3.23629 7.65014 3.14748C7.20091 3.05844 6.70336 3.01392 6.15771 3.01392C5.24799 3.01392 4.41789 3.17244 3.66743 3.48903C2.91673 3.80562 2.26867 4.2389 1.72279 4.78889C1.17691 5.33887 0.753461 5.98037 0.451984 6.71383C0.150508 7.44707 0 8.23045 0 9.06375C0 9.90806 0.1535 10.6968 0.460499 11.4303C0.767499 12.1633 1.19118 12.7994 1.7313 13.3384C2.27143 13.8771 2.91097 14.3021 3.65017 14.6133C4.38936 14.9245 5.1969 15.0798 6.07233 15.0798C6.62972 15.0798 7.13855 15.0326 7.59905 14.9382C8.05955 14.8438 8.48322 14.705 8.86985 14.5218C9.25648 14.3383 9.61756 14.1215 9.95309 13.8717C10.2884 13.6217 10.6097 13.3355 10.9167 13.0135" fill="white"/>
<path fill-rule="evenodd" clip-rule="evenodd" d="M37.9826 6.31729C37.9826 5.92919 38.1522 5.59942 38.4916 5.32797C38.8308 5.05608 39.306 4.92035 39.9167 4.92035C40.4596 4.92035 40.9968 5.0231 41.5282 5.22814C42.0599 5.43318 42.5971 5.72976 43.1398 6.11763L44.2595 4.57129C43.649 4.09457 42.9958 3.7316 42.3002 3.48236C41.6044 3.2329 40.8214 3.10817 39.9505 3.10817C39.3625 3.10817 38.8196 3.18848 38.3248 3.34933C37.8272 3.50995 37.4033 3.7399 37.0497 4.03916C36.6963 4.33865 36.4191 4.69602 36.2156 5.11171C36.0149 5.5274 35.913 5.99021 35.913 6.50012C35.913 7.04324 36.0007 7.50335 36.176 7.88024C36.3514 8.25712 36.6086 8.57859 36.9423 8.84465C37.2758 9.11072 37.6915 9.33236 38.1833 9.50981C38.6782 9.68726 39.241 9.84766 39.8771 9.99191C40.4314 10.1249 40.8807 10.2524 41.2286 10.3742C41.5735 10.4962 41.845 10.6266 42.0457 10.765C42.2435 10.9036 42.3794 11.0559 42.4529 11.2222C42.5264 11.3886 42.563 11.5768 42.563 11.7875C42.563 12.2422 42.3737 12.6025 41.9949 12.8683C41.6159 13.1346 41.1041 13.2674 40.4596 13.2674C39.7132 13.2674 39.0458 13.1371 38.4578 12.8766C37.8695 12.6162 37.2873 12.2422 36.7102 11.7543L35.455 13.2176C36.1676 13.8494 36.9423 14.3178 37.7791 14.6226C38.6161 14.9275 39.4925 15.0798 40.4085 15.0798C41.0306 15.0798 41.6019 15.0022 42.1222 14.8472C42.6394 14.6917 43.0862 14.4645 43.4538 14.1652C43.8241 13.866 44.1125 13.5003 44.3217 13.068C44.5282 12.6357 44.6328 12.1424 44.6328 11.5881C44.6328 11.1003 44.5508 10.6764 44.3867 10.3161C44.2226 9.95579 43.9796 9.64015 43.663 9.36825C43.3462 9.09681 42.9448 8.86664 42.4641 8.6782C41.9837 8.48998 41.4293 8.31814 40.8072 8.1629C40.2389 8.02987 39.7725 7.90222 39.4021 7.78041C39.0345 7.65859 38.7462 7.52556 38.534 7.38131C38.3248 7.23729 38.1808 7.08205 38.1014 6.91582C38.0224 6.74936 37.9826 6.54993 37.9826 6.31729" fill="white"/>
<path fill-rule="evenodd" clip-rule="evenodd" d="M61.2053 6.482V14.797H63.2781V3.20242H61.0522L57.4332 8.68507L53.8142 3.20242H51.5885V14.797H53.6613V6.51507L57.3821 11.9481H57.4501L61.2053 6.482Z" fill="white"/>
<path fill-rule="evenodd" clip-rule="evenodd" d="M80.6932 9.06373C80.6932 9.63035 80.5939 10.1664 80.3952 10.6721C80.1968 11.1776 79.9216 11.6162 79.5695 11.9884C79.2178 12.3605 78.7949 12.655 78.3013 12.8718C77.8074 13.0886 77.2655 13.1967 76.6754 13.1967C76.0851 13.1967 75.5402 13.0856 75.0408 12.8635C74.5415 12.6411 74.1128 12.3412 73.7554 11.9636C73.398 11.5857 73.1198 11.144 72.9211 10.6386C72.7227 10.1331 72.6232 9.59685 72.6232 9.03045C72.6232 8.4636 72.7227 7.92756 72.9211 7.4221C73.1198 6.91641 73.395 6.47772 73.7469 6.10537C74.0988 5.73324 74.5217 5.43891 75.0153 5.22216C75.509 5.00563 76.0511 4.89725 76.6412 4.89725C77.2315 4.89725 77.7764 5.00832 78.2758 5.2307C78.7749 5.45285 79.2035 5.7528 79.561 6.13055C79.9186 6.50808 80.1968 6.94991 80.3952 7.45537C80.5939 7.96084 80.6932 8.49711 80.6932 9.06373ZM82.8894 9.03047C82.8894 8.20819 82.7362 7.43043 82.4298 6.69697C82.1236 5.96396 81.6977 5.32493 81.1531 4.78057C80.6082 4.23598 79.9556 3.80562 79.1948 3.48903C78.4345 3.17244 77.5947 3.01392 76.6754 3.01392C75.7559 3.01392 74.9161 3.17513 74.1556 3.49734C73.395 3.81956 72.7367 4.25554 72.1806 4.80553C71.6242 5.35551 71.1933 5.99723 70.8866 6.73047C70.5802 7.46371 70.427 8.24147 70.427 9.06375C70.427 9.8858 70.5802 10.6633 70.8866 11.3968C71.1933 12.1303 71.6187 12.7691 72.1636 13.3134C72.7082 13.8578 73.361 14.2884 74.1216 14.605C74.8819 14.9216 75.7217 15.0798 76.6412 15.0798C77.5605 15.0798 78.4005 14.9186 79.1608 14.5966C79.9216 14.2744 80.5797 13.8384 81.1361 13.2882C81.6922 12.7385 82.1236 12.0968 82.4298 11.3635C82.7362 10.6303 82.8894 9.85252 82.8894 9.03047V9.03047Z" fill="white"/>
<path fill-rule="evenodd" clip-rule="evenodd" d="M91.5998 6.31729C91.5998 5.92919 91.7694 5.59942 92.1086 5.32797C92.448 5.05608 92.923 4.92035 93.5339 4.92035C94.0765 4.92035 94.614 5.0231 95.1454 5.22814C95.6769 5.43318 96.2143 5.72976 96.7572 6.11763L97.8767 4.57129C97.266 4.09457 96.6128 3.7316 95.9172 3.48236C95.2219 3.2329 94.4386 3.10817 93.5677 3.10817C92.9797 3.10817 92.4368 3.18848 91.942 3.34933C91.4444 3.50995 91.0205 3.7399 90.6669 4.03916C90.3135 4.33865 90.0365 4.69602 89.8326 5.11171C89.6321 5.5274 89.5303 5.99021 89.5303 6.50012C89.5303 7.04324 89.6179 7.50335 89.7932 7.88024C89.9686 8.25712 90.2258 8.57859 90.5593 8.84465C90.893 9.11072 91.3087 9.33236 91.8008 9.50981C92.2954 9.68726 92.8582 9.84766 93.4943 9.99191C94.0484 10.1249 94.4979 10.2524 94.8458 10.3742C95.1905 10.4962 95.4622 10.6266 95.6629 10.765C95.8607 10.9036 95.9966 11.0559 96.0701 11.2222C96.1436 11.3886 96.1804 11.5768 96.1804 11.7875C96.1804 12.2422 95.9907 12.6025 95.6121 12.8683C95.2331 13.1346 94.7213 13.2674 94.0765 13.2674C93.3302 13.2674 92.6627 13.1371 92.075 12.8766C91.487 12.6162 90.9045 12.2422 90.3275 11.7543L89.0723 13.2176C89.7845 13.8494 90.5593 14.3178 91.3963 14.6226C92.2331 14.9275 93.1095 15.0798 94.0257 15.0798C94.6478 15.0798 95.2189 15.0022 95.7394 14.8472C96.2566 14.6917 96.7034 14.4645 97.071 14.1652C97.4413 13.866 97.7297 13.5003 97.9389 13.068C98.1452 12.6357 98.25 12.1424 98.25 11.5881C98.25 11.1003 98.1678 10.6764 98.0039 10.3161C97.8398 9.95579 97.5968 9.64015 97.28 9.36825C96.9634 9.09681 96.562 8.86664 96.0813 8.6782C95.6007 8.48998 95.0463 8.31814 94.4244 8.1629C93.8561 8.02987 93.3897 7.90222 93.0193 7.78041C92.6518 7.65859 92.3634 7.52556 92.1512 7.38131C91.942 7.23729 91.7978 7.08205 91.7186 6.91582C91.6396 6.74936 91.5998 6.54993 91.5998 6.31729" fill="white"/>
<path fill-rule="evenodd" clip-rule="evenodd" d="M25.1356 5.52358L19.4561 11.0656C19.3829 10.9269 19.3168 10.7825 19.2576 10.6326C19.0592 10.129 18.96 9.5948 18.96 9.03054C18.96 8.46583 19.0592 7.93181 19.2576 7.42826C19.4561 6.92448 19.7312 6.48745 20.0829 6.11651C20.4345 5.74578 20.8572 5.45257 21.3505 5.23663C21.8441 5.02092 22.3856 4.91295 22.9754 4.91295C23.5654 4.91295 24.1099 5.02361 24.6088 5.24514C24.7943 5.32735 24.9699 5.42009 25.1356 5.52358ZM24.6345 12.8573C24.1409 13.0733 23.5994 13.181 23.0096 13.181C22.4196 13.181 21.8751 13.0704 21.376 12.849C21.1907 12.7666 21.0151 12.6739 20.8496 12.5702L26.5289 7.02859C26.6021 7.16703 26.6682 7.31128 26.7275 7.46137C26.9258 7.96492 27.025 8.49916 27.025 9.06365C27.025 9.62813 26.9258 10.1621 26.7275 10.6659C26.5289 11.1695 26.2539 11.6065 25.9022 11.9772C25.5505 12.348 25.1281 12.6414 24.6345 12.8573ZM25.4938 14.5757C26.2539 14.2547 26.9118 13.8203 27.4676 13.2722C28.0234 12.7245 28.4543 12.0852 28.7605 11.3548C29.067 10.6243 29.2201 9.84947 29.2201 9.03052C29.2201 8.21135 29.067 7.43653 28.7605 6.70584C28.5789 6.27262 28.3553 5.87255 28.0899 5.50542L31.7839 1.90101L30.3161 0.46875L26.6108 4.08413C26.2782 3.86282 25.9171 3.67152 25.5277 3.51001C24.7676 3.19462 23.9283 3.0367 23.0096 3.0367C22.0906 3.0367 21.2513 3.19731 20.4913 3.5183C19.7312 3.8393 19.0732 4.27363 18.5174 4.82154C17.9616 5.36945 17.5305 6.00875 17.2243 6.73921C16.918 7.46968 16.7649 8.2445 16.7649 9.06368C16.7649 9.88262 16.918 10.6572 17.2243 11.3879C17.4061 11.8214 17.6297 12.2214 17.8951 12.5888L14.2013 16.1927L15.6692 17.625L19.3742 14.0098C19.7068 14.2312 20.0679 14.4225 20.4573 14.584C21.2174 14.8994 22.0567 15.0571 22.9754 15.0571C23.8944 15.0571 24.7337 14.8964 25.4938 14.5757V14.5757Z" fill="white"/>
</svg>
