<svg width="1344" height="1219" viewBox="0 0 1344 1219" fill="none" xmlns="http://www.w3.org/2000/svg">
    <ellipse cx="660" cy="656" rx="455" ry="368" fill="url(#paint0_radial_3180_2302)" />
    <circle cx="676" cy="611" r="105.25" fill="url(#paint1_linear_3180_2302)" stroke="#6475EF" stroke-width="1.5" />
    <circle cx="676" cy="611" r="112" fill="url(#paint2_linear_3180_2302)" />
    <circle cx="676" cy="611" r="109" stroke="#3242B5" stroke-opacity="0.65" stroke-width="6" />
    <circle cx="676" cy="611" r="120" fill="url(#paint3_linear_3180_2302)" />
    <circle cx="676" cy="611" r="112" stroke="#3242B5" stroke-opacity="0.65" stroke-width="16" />
    <path
        d="M661.647 586.31L689.89 586.31L704.011 610.768L689.89 635.227L661.647 635.227L647.526 610.768L661.647 586.31Z"
        stroke="#9DE599" stroke-width="1.5" />
    <path
        d="M709.781 557.848L738.024 557.848L752.146 582.307L738.024 606.766L709.781 606.766L695.66 582.307L709.781 557.848Z"
        fill="#252B8D" fill-opacity="0.54" stroke="#6475EF" stroke-width="1.5" />
    <path
        d="M710.782 615.673L739.024 615.673L753.146 640.132L739.024 664.59L710.782 664.59L696.66 640.132L710.782 615.673Z"
        fill="#252B8D" fill-opacity="0.54" stroke="#6475EF" stroke-width="1.5" />
    <path
        d="M661.647 643.134L689.89 643.134L704.011 667.592L689.89 692.051L661.647 692.051L647.526 667.592L661.647 643.134Z"
        fill="#252B8D" fill-opacity="0.54" stroke="#6475EF" stroke-width="1.5" />
    <path
        d="M613.512 615.771L641.755 615.771L655.876 640.23L641.755 664.689L613.512 664.689L599.391 640.23L613.512 615.771Z"
        fill="#252B8D" fill-opacity="0.54" stroke="#6475EF" stroke-width="1.5" />
    <path
        d="M613.512 557.947L641.755 557.947L655.876 582.406L641.755 606.865L613.512 606.865L599.391 582.406L613.512 557.947Z"
        fill="#252B8D" fill-opacity="0.54" stroke="#6475EF" stroke-width="1.5" />
    <path
        d="M661.647 530.486L689.889 530.486L704.011 554.945L689.889 579.404L661.647 579.404L647.525 554.945L661.647 530.486Z"
        fill="#252B8D" fill-opacity="0.54" stroke="#6475EF" stroke-width="1.5" />
    <path fill-rule="evenodd" clip-rule="evenodd"
        d="M676 597.585C672.24 599.709 669.543 603.491 668.898 607.937C673.351 605.688 678.649 605.688 683.102 607.937C682.457 603.491 679.76 599.709 676 597.585ZM676 596.73L675.649 596.067C670.968 598.541 667.683 603.308 667.29 608.874C666.433 609.444 665.619 610.107 664.863 610.863C661.52 614.206 659.995 618.678 660.285 623.05L660.795 623.016L660.599 623.325C663.031 624.861 665.913 625.75 669 625.75C671.514 625.75 673.891 625.161 676 624.113C678.109 625.161 680.486 625.75 683 625.75C686.087 625.75 688.969 624.861 691.401 623.325L691.205 623.016L691.715 623.05C692.005 618.678 690.48 614.206 687.137 610.863C686.381 610.107 685.567 609.444 684.71 608.874C684.317 603.308 681.032 598.541 676.35 596.067L676 596.73ZM683.247 609.727C678.791 607.091 673.209 607.091 668.753 609.727C668.751 609.817 668.75 609.909 668.75 610C668.75 615.326 671.672 619.969 676 622.415C680.328 619.969 683.25 615.326 683.25 610C683.25 609.909 683.249 609.817 683.247 609.727ZM677.605 623.193C681.715 620.508 684.493 615.954 684.733 610.738C685.199 611.1 685.648 611.495 686.076 611.924C688.928 614.775 690.318 618.534 690.247 622.272C688.124 623.529 685.648 624.25 683 624.25C681.091 624.25 679.269 623.874 677.605 623.193ZM674.395 623.193C670.285 620.508 667.507 615.954 667.267 610.738C666.801 611.1 666.352 611.495 665.924 611.924C663.072 614.775 661.682 618.534 661.753 622.272C663.875 623.529 666.352 624.25 669 624.25C670.909 624.25 672.731 623.874 674.395 623.193Z"
        fill="#9DE599" />
    <circle cx="676" cy="614" r="2.25" stroke="#9DE599" stroke-width="1.5" />
    <path
        d="M910 639C910 686.36 882.76 729.336 838.519 760.512C794.28 791.687 733.112 811 665.5 811C597.888 811 536.72 791.687 492.481 760.512C448.24 729.336 421 686.36 421 639C421 591.64 448.24 548.664 492.481 517.488C536.72 486.313 597.888 467 665.5 467C733.112 467 794.28 486.313 838.519 517.488C882.76 548.664 910 591.64 910 639Z"
        stroke="#827AB0" stroke-width="2" id="innerRing" />
    <path
        d="M941 650C941 704.271 910.338 753.497 860.579 789.195C810.821 824.891 742.03 847 666 847C589.97 847 521.179 824.891 471.421 789.195C421.662 753.497 391 704.271 391 650C391 595.729 421.662 546.502 471.421 510.805C521.179 475.11 589.97 453 666 453C742.03 453 810.821 475.11 860.579 510.805C910.338 546.502 941 595.729 941 650Z"
        stroke="#827AB0" stroke-width="2" id="outerRing" />
    <path
        d="M910 639C910 685.672 883.143 728.326 838.913 759.473C794.694 790.613 733.396 810 665.5 810C597.604 810 536.306 790.613 492.087 759.473C447.857 728.326 421 685.672 421 639C421 592.328 447.857 549.674 492.087 518.527C536.306 487.387 597.604 468 665.5 468C733.396 468 794.694 487.387 838.913 518.527C883.143 549.674 910 592.328 910 639Z"
        stroke="#252B8D" stroke-opacity="0.54" stroke-width="8" />
    <path
        d="M941 650C941 703.608 910.695 752.512 860.952 788.17C811.216 823.823 742.303 846 666 846C589.697 846 520.784 823.823 471.048 788.17C421.305 752.512 391 703.608 391 650C391 596.392 421.305 547.488 471.048 511.83C520.784 476.177 589.697 454 666 454C742.303 454 811.216 476.177 860.952 511.83C910.695 547.488 941 596.392 941 650Z"
        stroke="#252B8D" stroke-opacity="0.54" stroke-width="8" />
    <path
        d="M1108.5 703C1108.5 788.403 1060.54 865.766 982.91 921.798C905.28 977.829 798.01 1012.5 679.5 1012.5C560.99 1012.5 453.72 977.829 376.09 921.798C298.46 865.766 250.5 788.403 250.5 703C250.5 617.597 298.46 540.234 376.09 484.202C453.72 428.171 560.99 393.5 679.5 393.5C798.01 393.5 905.28 428.171 982.91 484.202C1060.54 540.234 1108.5 617.597 1108.5 703Z"
        stroke="#6475EF" stroke-opacity="0.72" />
    <path
        d="M1191.5 724.5C1191.5 826.609 1133.92 919.097 1040.72 986.077C947.529 1053.06 818.759 1094.5 676.5 1094.5C534.241 1094.5 405.471 1053.06 312.278 986.077C219.084 919.097 161.5 826.609 161.5 724.5C161.5 622.391 219.084 529.903 312.278 462.923C405.471 395.943 534.241 354.5 676.5 354.5C818.759 354.5 947.529 395.943 1040.72 462.923C1133.92 529.903 1191.5 622.391 1191.5 724.5Z"
        stroke="#6475EF" stroke-opacity="0.31" />
    <path
        d="M1334.5 748.5C1334.5 878.231 1263.87 995.719 1149.59 1080.79C1035.32 1165.87 877.425 1218.5 703 1218.5C528.575 1218.5 370.682 1165.87 256.407 1080.79C142.132 995.719 71.5 878.231 71.5 748.5C71.5 618.769 142.132 501.281 256.407 416.207C370.682 331.134 528.575 278.5 703 278.5C877.425 278.5 1035.32 331.134 1149.59 416.207C1263.87 501.281 1334.5 618.769 1334.5 748.5Z"
        stroke="#6475EF" stroke-opacity="0.13" />
    <circle cx="770.469" cy="476.496" r="14.7483" transform="rotate(15 770.469 476.496)" fill="white" />
    <circle cx="770.469" cy="476.496" r="26.4109" transform="rotate(15 770.469 476.496)" fill="white"
        fill-opacity="0.17" />
    <path
        d="M761.616 509.534C758.682 508.748 755.94 507.603 753.424 506.16C741.17 499.129 734.285 485.011 736.755 470.711C736.932 469.689 737.157 468.665 737.43 467.643M748.621 450.176C756.868 443.343 768.189 440.475 779.321 443.458C797.567 448.347 808.396 467.102 803.506 485.348C801.418 493.144 796.798 499.586 790.768 504.026"
        stroke="white">
        <animateTransform attributeName="transform" attributeType="XML" type="rotate" from="0 770.469 476.496"
            to="-360 770.469 476.496" dur="1.1s" repeatCount="indefinite" />
    </path>
    <path
        d="M814.418 488.272C810.26 503.79 798.563 515.275 784.323 519.841M782.245 432.546C757.972 426.042 733.023 440.447 726.519 464.72C720.427 487.457 732.681 510.788 754.208 518.995"
        stroke="white">
        <animateTransform attributeName="transform" attributeType="XML" type="rotate" from="0 770.469 476.496"
            to="360 770.469 476.496" dur="1s" repeatCount="indefinite" />
    </path>

    <circle cx="415.602" cy="598.481" r="17.6655" transform="rotate(-45 415.602 598.481)" fill="white" />
    <circle cx="415.602" cy="598.481" r="29.7837" transform="rotate(-45 415.602 598.481)" fill="white"
        fill-opacity="0.3" />
    <path
        d="M444.571 627.451C441.999 630.024 439.169 632.183 436.165 633.928C421.533 642.429 402.764 641.116 389.411 629.989C388.456 629.193 387.529 628.347 386.633 627.451M375.215 605.381C373.065 592.735 376.871 579.274 386.633 569.512C402.632 553.513 428.572 553.513 444.571 569.512C451.407 576.348 455.322 584.998 456.317 593.912"
        stroke="white">
        <animateTransform attributeName="transform" attributeType="XML" type="rotate" from="0 415.602 598.481"
            to="360 415 598.481" dur="1s" repeatCount="indefinite" />
    </path>
    <path
        d="M454.139 559.944C467.747 573.552 472.654 592.564 468.862 610.07M377.065 559.944C355.781 581.228 355.781 615.735 377.065 637.019C397.002 656.956 428.544 658.217 449.949 640.802"
        stroke="white">
        <animateTransform attributeName="transform" attributeType="XML" type="rotate" from="0 415.602 598.481"
            to="-360 415 598.481" dur="0.9s" repeatCount="indefinite" />
    </path>
    <circle cx="825.973" cy="789.154" r="22.2324" fill="white" />
    <circle cx="826" cy="789" r="39" fill="white" fill-opacity="0.19" />
    <path
        d="M825.973 840.715C821.394 840.715 816.955 840.118 812.728 838.998C792.142 833.542 776.608 815.671 774.627 793.885C774.485 792.327 774.413 790.749 774.413 789.154M783.892 759.354C793.234 746.187 808.6 737.594 825.973 737.594C854.449 737.594 877.533 760.679 877.533 789.154C877.533 801.321 873.319 812.503 866.272 821.321"
        stroke="white">
        <animateTransform attributeName="transform" attributeType="XML" type="rotate" from="0 826 789" to="360 826 789"
            dur="1s" repeatCount="indefinite" />
    </path>
    <path
        d="M894.562 789.154C894.562 813.373 882.011 834.659 863.057 846.864M825.973 720.565C788.092 720.565 757.384 751.273 757.384 789.154C757.384 824.639 784.331 853.83 818.878 857.381"
        stroke="white">
        <animateTransform attributeName="transform" attributeType="XML" type="rotate" from="0 826 789" to="-360 826 789"
            dur="0.9s" repeatCount="indefinite" />
    </path>

    <circle transform="translate(-510, -770)" cx="509" cy="770" r="12" fill="#7ABCFE">
        <animateMotion dur="2s" repeatCount="indefinite" rotate="0" begin="-7.09s">
            <mpath href="#outerRing" />
        </animateMotion>
    </circle>
    <circle transform="translate(-510, -770)" cx="509" cy="770" r="12" fill="#6475EF">
        <animateMotion dur="2s" repeatCount="indefinite" rotate="0" begin="-7.06s">
            <mpath href="#outerRing" />
        </animateMotion>
    </circle>
    <circle transform="translate(-510, -770)" cx="509" cy="770" r="12" fill="#C62DE7">
        <animateMotion dur="2s" repeatCount="indefinite" rotate="0" begin="-7.03s">
            <mpath href="#outerRing" />
        </animateMotion>
    </circle>


    <circle transform="translate(-510, -770)" cx="509" cy="770" r="12" fill="#7ABCFE">
        <animateMotion dur="1.8s" repeatCount="indefinite" rotate="0" begin="-4.05s" keyPoints="1;0" keyTimes="0;1"
            calcMode="linear">
            <mpath href="#outerRing" />
        </animateMotion>
    </circle>
    <circle transform="translate(-510, -770)" cx="509" cy="770" r="12" fill="#C62DE7">
        <animateMotion dur="1.8s" repeatCount="indefinite" rotate="0" begin="-4.07s" keyPoints="1;0" keyTimes="0;1"
            calcMode="linear">
            <mpath href="#outerRing" />
        </animateMotion>
    </circle>
    <circle transform="translate(-510, -770)" cx="509" cy="770" r="12" fill="#6475EF">
        <animateMotion dur="1.8s" repeatCount="indefinite" rotate="0" begin="-4.03s" keyPoints="1;0" keyTimes="0;1"
            calcMode="linear">
            <mpath href="#outerRing" />
        </animateMotion>
    </circle>


    <circle transform="translate(-510, -770)" cx="509" cy="770" r="6.5" fill="#C62DE7">
        <animateMotion dur="2.1s" repeatCount="indefinite" rotate="0" begin="-2.0s" keyPoints="1;0" keyTimes="0;1"
            calcMode="linear">
            <mpath href="#outerRing" />
        </animateMotion>
    </circle>
    <circle transform="translate(-510, -770)" cx="509" cy="770" r="6.5" fill="#6475EF">
        <animateMotion dur="2.1s" repeatCount="indefinite" rotate="0" begin="-2.02s" keyPoints="1;0" keyTimes="0;1"
            calcMode="linear">
            <mpath href="#outerRing" />
        </animateMotion>
    </circle>
    <circle transform="translate(-510, -770)" cx="509" cy="770" r="8.5" fill="#7ABCFE">
        <animateMotion dur="2.1s" repeatCount="indefinite" rotate="0" begin="-2.04s" keyPoints="1;0" keyTimes="0;1"
            calcMode="linear">
            <mpath href="#outerRing" />
        </animateMotion>
    </circle>


    <ellipse transform="translate(-510, -770)" cx="509" cy="770" rx="8.5" ry="9" fill="#C62DE7">
        <animateMotion dur="1.9s" repeatCount="indefinite" rotate="0" begin="-0.02s" calcMode="linear">
            <mpath href="#outerRing" />
        </animateMotion>
    </ellipse>
    <ellipse transform="translate(-510, -770)" cx="509" cy="770" rx="8.5" ry="9" fill="#7ABCFE">
        <animateMotion dur="1.9s" repeatCount="indefinite" rotate="0" begin="-0.04s" calcMode="linear">
            <mpath href="#outerRing" />
        </animateMotion>
    </ellipse>
    <circle transform="translate(-510, -770)" cx="509" cy="770" r="8.5" fill="#6475EF">
        <animateMotion dur="1.9s" repeatCount="indefinite" rotate="0" begin="-0.06s" calcMode="linear">
            <mpath href="#outerRing" />
        </animateMotion>
    </circle>


    <circle transform="translate(-590, -475)" cx="590.5" cy="475.5" r="8.5" fill="#6475EF">
        <animateMotion dur="2.2s" repeatCount="indefinite" rotate="0" begin="-0.09s" calcMode="linear">
            <mpath href="#innerRing" />
        </animateMotion>
    </circle>
    <circle transform="translate(-590, -475)" cx="590.5" cy="475.5" r="8.5" fill="#C62DE7">
        <animateMotion dur="2.2s" repeatCount="indefinite" rotate="0" begin="-0.06s" calcMode="linear">
            <mpath href="#innerRing" />
        </animateMotion>
    </circle>
    <circle transform="translate(-590, -475)" cx="590.5" cy="475.5" r="6.5" fill="#7ABCFE">
        <animateMotion dur="2.2s" repeatCount="indefinite" rotate="0" begin="-0.03s" calcMode="linear">
            <mpath href="#innerRing" />
        </animateMotion>
    </circle>



    <ellipse transform="translate(-590, -475)" cx="590.5" cy="475.5" rx="8.02778" ry="8.5" fill="#556FFA">
        <animateMotion dur="2.3s" repeatCount="indefinite" rotate="0" begin="-0.09s" keyPoints="1;0" keyTimes="0;1"
            calcMode="linear">
            <mpath href="#innerRing" />
        </animateMotion>
    </ellipse>
    <circle transform="translate(-590, -475)" cx="590.5" cy="475.5" r="8.5" fill="#7ABCFE">
        <animateMotion dur="2.3s" repeatCount="indefinite" rotate="0" begin="-0.06s" keyPoints="1;0" keyTimes="0;1"
            calcMode="linear">
            <mpath href="#innerRing" />
        </animateMotion>
    </circle>
    <ellipse transform="translate(-590, -475)" cx="590.5" cy="475.5" rx="8.02778" ry="8.5" fill="#C62DE7">
        <animateMotion dur="2.3s" repeatCount="indefinite" rotate="0" begin="-0.03s" keyPoints="1;0" keyTimes="0;1"
            calcMode="linear">
            <mpath href="#innerRing" />
        </animateMotion>
    </ellipse>


    <defs>
        <radialGradient id="paint0_radial_3180_2302" cx="0" cy="0" r="1" gradientUnits="userSpaceOnUse"
            gradientTransform="translate(660 656) rotate(90) scale(368 455)">
            <stop stop-color="#1C2675" />
            <stop offset="1" stop-color="#1C2675" stop-opacity="0" />
        </radialGradient>
        <linearGradient id="paint1_linear_3180_2302" x1="601.306" y1="537.404" x2="737.513" y2="698.326"
            gradientUnits="userSpaceOnUse">
            <stop stop-color="#141677" stop-opacity="0.54" />
            <stop offset="1" stop-color="#1B1C54" stop-opacity="0" />
        </linearGradient>
        <linearGradient id="paint2_linear_3180_2302" x1="597.078" y1="533.238" x2="740.995" y2="703.269"
            gradientUnits="userSpaceOnUse">
            <stop stop-color="#141677" stop-opacity="0.54" />
            <stop offset="1" stop-color="#1B1C54" stop-opacity="0" />
        </linearGradient>
        <linearGradient id="paint3_linear_3180_2302" x1="591.44" y1="527.684" x2="745.637" y2="709.86"
            gradientUnits="userSpaceOnUse">
            <stop stop-color="#141677" stop-opacity="0.54" />
            <stop offset="1" stop-color="#1B1C54" stop-opacity="0" />
        </linearGradient>
    </defs>
</svg>